<svg width="109" height="161" viewBox="0 0 109 161" fill="none" xmlns="http://www.w3.org/2000/svg">
<path d="M35.9532 107.121C36.4185 106.904 44.7623 111.583 50.8571 111.778C56.9519 111.973 67.6239 106.655 67.6239 107.121C67.6239 107.586 68.8059 126.079 69.4869 126.682C70.1679 127.285 70.8002 127.355 71.3499 128.079C71.8995 128.804 71.7621 131.629 71.3499 133.202C70.9377 134.776 70.5128 135.666 69.4869 136.928C68.461 138.191 66.8678 139.722 66.2272 140.188C65.5865 140.654 63.12 142.054 61.1035 142.983C59.087 143.912 55.9498 144.817 52.7206 144.846C49.4913 144.875 46.6911 144.833 44.3371 143.914C41.9832 142.996 39.4747 141.634 38.2825 140.654C37.0902 139.674 36.8852 139.257 35.488 136.928C34.0908 134.599 34.1889 134.823 33.6245 133.202C33.0602 131.582 33.5496 129.227 33.6245 126.682C33.6995 124.137 35.488 107.338 35.9532 107.121Z" fill="#FFB39C"/>
<path d="M25.9902 126.083C28.8493 125.583 30.7821 124.878 33.4225 126.083C36.0629 127.288 34.1125 134.747 37.4898 138.642C40.867 142.536 47.4698 144.575 53.0035 144.247C58.5371 143.919 62.4707 142.193 66.0443 138.642C69.6179 135.091 69.6354 127.966 71.6333 127.015C73.6311 126.064 75.0462 125.682 77.2222 126.083C79.3982 126.485 81.4141 127.946 83.7429 129.809C85.8002 131.455 86.3392 132.104 88.4001 133.768C90.461 135.432 93.2397 138.189 95.852 141.453C98.4643 144.716 100.12 147.281 101.907 150.768C103.693 154.255 106.099 159.306 102.838 161.48C99.5783 163.653 93.4587 167.487 92.8654 167.747C92.2721 168.007 82.4946 171.149 79.4247 171.916C76.3548 172.684 71.1373 173.884 66.0445 174.52C60.9518 175.157 58.1357 174.944 53.0035 174.986C47.8712 175.028 43.5564 175.157 38.0998 174.52C32.6433 173.884 30.1791 173.203 25.0587 171.726C19.9384 170.248 17.3038 168.876 12.4838 166.603C7.66387 164.329 1.77145 161.48 0.374238 160.082C-1.02297 158.685 1.84668 154.328 3.16871 150.768C4.49074 147.207 5.60091 144.601 7.36042 141.453C9.11993 138.304 10.4057 135.986 12.4836 133.768C14.5615 131.55 15.902 130.39 18.5383 128.878C21.1746 127.365 23.1312 126.583 25.9902 126.083Z" fill="#FFE330"/>
<path d="M55.9616 0C61.604 0 74.9857 10.8599 79.8073 19.3477C82.7512 17.7392 85.2105 16.7666 86.7009 16.7666C91.8448 16.7666 96.2657 20.4278 98.2136 25.6709C104.295 25.3481 108.591 29.5774 108.591 36.7939C108.59 45.025 100.207 54.0259 96.4811 56.8203C94.652 58.1922 86.9876 64.8041 86.7087 57.2559C86.5512 57.2736 86.3935 57.2861 86.235 57.2861C80.851 57.2861 63.1033 55.5136 55.3962 50.8828C44.5429 56.4038 23.8377 61.2122 12.1813 60.5459C5.75088 60.5458 0.537958 54.4993 0.537781 47.04C0.537781 39.5806 6.21656 32.1357 12.6472 32.1357C12.9844 30.0702 13.6703 28.4177 14.6364 27.124C14.5536 26.4782 14.5104 25.8195 14.5104 25.1504C14.5104 16.9194 20.9741 10.2463 28.9479 10.2461C31.3467 10.2461 35.4634 11.4271 39.7809 13.1914C43.3148 6.48373 50.8127 4.29285e-05 55.9616 0Z" fill="#57585D"/>
<path d="M52.2567 49.3686C60.6619 49.3687 87.1856 51.6974 87.1864 59.1489V62.4135C88.9571 62.4693 96.866 63.8913 96.8661 67.9985C96.8661 70.0562 97.0986 74.0526 95.9344 76.3813C95.1503 77.9497 89.0852 78.665 87.1864 77.6245V80.5737C87.1861 97.8073 68.4616 111.778 52.2567 111.778C36.0516 111.778 16.8593 96.4101 16.8593 79.1762C16.8593 78.5994 16.8593 78.0645 16.8593 77.5649C15.0867 78.6919 8.80845 77.9789 8.00964 76.3813C6.84543 74.0527 7.07799 70.0563 7.078 67.9985C7.07812 63.807 15.3144 62.4098 16.8583 62.4096H16.8593C16.8593 62.1092 16.8592 61.7989 16.8593 61.478C16.8596 51.0027 43.4929 49.3686 52.2567 49.3686Z" fill="#FFB39C"/>
</svg>
