<svg width="110" height="161" viewBox="0 0 110 161" fill="none" xmlns="http://www.w3.org/2000/svg">
<path d="M54.4897 0C81.0376 -7.85844e-07 102.508 38.3529 106.171 67.173C107.302 76.0653 112.738 89.7206 107.57 93.4786C106.171 98.4109 97.2247 98.4109 90.6598 98.4109C54.8067 98.4109 52.2936 98.4109 18.7894 98.4109C12.6545 98.4109 0 100.525 0 85.9627C1.81186 80.3258 3.10866 76.0653 4.16057 67.173C5.49027 55.9326 7.30244 42.3026 13.1528 31.0029C22.3025 13.3307 38.296 4.79348e-07 54.4897 0Z" fill="#57585D"/>
<path d="M42.3696 86.936C42.7229 86.6822 49.0584 92.1546 53.6862 92.3823C58.314 92.61 66.4173 86.3915 66.4173 86.936C66.4173 87.4806 67.3148 109.106 67.8319 109.81C68.349 110.515 68.8291 110.597 69.2464 111.444C69.6638 112.292 69.5594 115.595 69.2464 117.435C68.9335 119.276 68.6108 120.316 67.8319 121.792C67.0529 123.269 65.8432 125.06 65.3567 125.605C64.8703 126.149 62.9974 127.786 61.4663 128.873C59.9352 129.959 57.5531 131.017 55.1011 131.051C52.6491 131.085 50.523 131.036 48.7356 129.962C46.9482 128.888 45.0435 127.295 44.1382 126.149C43.2329 125.003 43.0773 124.515 42.0164 121.792C40.9555 119.069 41.0299 119.33 40.6014 117.435C40.1729 115.54 40.5445 112.787 40.6014 109.81C40.6584 106.834 42.0164 87.1898 42.3696 86.936Z" fill="#FFB39C"/>
<path d="M87.4498 64.8243C82.7524 81.2653 71.8515 94.418 55.5074 94.418C39.1632 94.418 21.2163 79.856 22.6255 62.9453C22.6255 54.9637 22.6251 54.9597 22.6255 45.0952C22.6259 34.5299 33.9853 25.8358 42.8244 25.8358C51.3013 25.8358 87.4498 33.3516 87.4498 40.8675C87.4498 48.3834 87.4498 56.4576 87.4498 64.8243Z" fill="#FFB39C"/>
<path d="M39.4583 111.329C43.4179 113.155 40.1042 120.837 43.2163 124.012C46.3283 127.186 49.345 128.028 53.7854 128.239C58.2259 128.451 61.5501 128.036 64.8244 124.951C68.0986 121.867 64.0274 113.305 68.1126 111.329C72.1977 109.352 75.6283 112.268 79.3864 114.147C83.1444 116.026 86.2022 118.098 89.2509 120.724C92.2996 123.349 94.0653 124.892 96.2971 128.239C98.5288 131.587 99.4092 133.769 100.525 137.634C101.64 141.5 104.755 151.176 100.525 157.833C96.294 164.491 87.9501 163.69 79.3864 165.819C70.8226 167.948 63.6613 168.657 53.7854 168.637C43.9096 168.617 36.6869 167.955 28.6543 165.819C20.6216 163.682 13.2181 164.451 8.92512 157.833C4.63218 151.215 7.93143 141.459 8.92512 137.634C9.91881 133.81 10.7557 131.493 12.6831 128.239C14.6104 124.986 16.0316 123.311 18.7897 120.724C21.5478 118.136 26.3057 115.186 28.6543 114.147C31.0029 113.108 35.4987 109.502 39.4583 111.329Z" fill="#0091FF"/>
</svg>
