<svg width="512" height="555" viewBox="0 0 512 555" fill="none" xmlns="http://www.w3.org/2000/svg">
<path d="M0 491.571V206.143C0 196.1 2.27199 186.586 6.81599 177.6C11.36 168.614 17.6213 161.214 25.6 155.4L217.6 12.6857C228.8 4.22857 241.6 0 256 0C270.4 0 283.2 4.22857 294.4 12.6857L486.4 155.4C494.4 161.214 500.672 168.614 505.216 177.6C509.76 186.586 512.021 196.1 512 206.143V491.571C512 509.014 505.728 523.952 493.184 536.384C480.64 548.816 465.579 555.021 448 555H352C342.933 555 335.339 551.955 329.216 545.866C323.093 539.777 320.021 532.25 320 523.286V364.714C320 355.728 316.928 348.202 310.784 342.134C304.64 336.066 297.045 333.021 288 333H224C214.933 333 207.339 336.045 201.216 342.134C195.093 348.223 192.021 355.75 192 364.714V523.286C192 532.271 188.928 539.809 182.784 545.898C176.64 551.987 169.045 555.021 160 555H64C46.4 555 31.3387 548.794 18.816 536.384C6.29333 523.973 0.0213333 509.035 0 491.571Z" fill="#3188E1"/>
</svg>
