<svg width="512" height="512" viewBox="0 0 512 512" fill="none" xmlns="http://www.w3.org/2000/svg">
<rect width="512" height="512" rx="96" fill="url(#paint0_linear_34_2)"/>
<path d="M151 216.806H361L328.436 371.161C325.996 382.724 315.792 391 303.974 391H211.132C199.493 391 189.394 382.968 186.774 371.628L151 216.806Z" fill="url(#paint1_linear_34_2)"/>
<path d="M350.5 218.548C350.5 170.446 316.889 121 256 121C195.111 121 161.5 170.446 161.5 218.548" stroke="#F4F6F5" stroke-width="8"/>
<path d="M256 189.693C284.827 189.693 310.832 193.089 329.549 198.523C338.924 201.244 346.33 204.438 351.334 207.873C356.417 211.362 358.5 214.718 358.5 217.677C358.5 220.636 356.418 223.992 351.334 227.482C346.33 230.917 338.924 234.11 329.549 236.832C310.832 242.266 284.827 245.661 256 245.661C227.173 245.661 201.168 242.266 182.451 236.832C173.076 234.11 165.67 230.917 160.666 227.482C155.582 223.992 153.5 220.636 153.5 217.677C153.5 214.718 155.583 211.362 160.666 207.873C165.67 204.438 173.076 201.244 182.451 198.523C201.168 193.089 227.173 189.693 256 189.693Z" fill="#F2F3EE" stroke="#2D81D5" stroke-width="5"/>
<rect x="231" y="116" width="50" height="15" rx="7.5" fill="#F4F6F5"/>
<line x1="273.5" y1="116" x2="273.5" y2="131" stroke="#358FE1" stroke-width="3"/>
<line x1="238.5" y1="116" x2="238.5" y2="131" stroke="#358FE1" stroke-width="3"/>
<defs>
<linearGradient id="paint0_linear_34_2" x1="256" y1="0" x2="256" y2="512" gradientUnits="userSpaceOnUse">
<stop stop-color="#42A5F5"/>
<stop offset="1" stop-color="#0D47A1"/>
</linearGradient>
<linearGradient id="paint1_linear_34_2" x1="256" y1="216.806" x2="256" y2="391" gradientUnits="userSpaceOnUse">
<stop stop-color="#F4F6F5"/>
</linearGradient>
</defs>
</svg>
