<svg width="512" height="512" viewBox="0 0 512 512" fill="none" xmlns="http://www.w3.org/2000/svg">
<rect width="512" height="512" rx="96" fill="url(#paint0_linear_34_2)"/>
<path d="M176.345 175.87L366.669 264.619L271.923 390.749C264.825 400.199 252.08 403.387 241.369 398.392L157.226 359.155C146.677 354.237 140.919 342.689 143.336 331.304L176.345 175.87Z" fill="url(#paint1_linear_34_2)"/>
<path d="M356.417 261.761C376.746 218.165 367.181 159.147 311.997 133.414C256.812 107.681 205.454 138.29 185.125 181.886" stroke="#F4F6F5" stroke-width="8"/>
<path d="M282.965 195.672C309.092 207.855 331.225 221.922 345.892 234.757C353.238 241.186 358.6 247.21 361.684 252.438C364.816 257.749 365.286 261.67 364.035 264.352C362.785 267.033 359.479 269.195 353.397 270.209C347.41 271.207 339.349 270.972 329.701 269.477C310.441 266.492 285.439 258.579 259.312 246.396C233.186 234.213 211.053 220.146 196.386 207.311C189.039 200.882 183.677 194.857 180.593 189.629C177.461 184.318 176.992 180.397 178.242 177.715C179.493 175.033 182.798 172.872 188.88 171.858C194.867 170.86 202.929 171.095 212.576 172.59C231.836 175.576 256.839 183.489 282.965 195.672Z" fill="#F2F3EE" stroke="#2D81D5" stroke-width="5"/>
<rect x="291.452" y="118.317" width="50" height="15" rx="7.5" transform="rotate(25 291.452 118.317)" fill="#F4F6F5"/>
<line x1="329.97" y1="136.279" x2="323.631" y2="149.873" stroke="#358FE1" stroke-width="3"/>
<line x1="298.249" y1="121.487" x2="291.91" y2="135.082" stroke="#358FE1" stroke-width="3"/>
<defs>
<linearGradient id="paint0_linear_34_2" x1="256" y1="0" x2="256" y2="512" gradientUnits="userSpaceOnUse">
<stop stop-color="#42A5F5"/>
<stop offset="1" stop-color="#0D47A1"/>
</linearGradient>
<linearGradient id="paint1_linear_34_2" x1="271.507" y1="220.244" x2="197.89" y2="378.117" gradientUnits="userSpaceOnUse">
<stop stop-color="#F4F6F5"/>
</linearGradient>
</defs>
</svg>
