<svg width="512" height="568" viewBox="0 0 512 568" fill="none" xmlns="http://www.w3.org/2000/svg">
<path d="M240 568V293.88L0 155.206V400.132C0 409.384 2.29334 417.985 6.88 425.936C11.4453 433.887 17.7707 440.176 25.856 444.801L240 568ZM272 568L486.144 444.833C494.251 440.207 500.587 433.919 505.152 425.968C509.717 417.996 512 409.384 512 400.132V155.206L272 293.88V568ZM389.344 189.227L494.208 129.114L281.856 6.9705C273.749 2.3235 265.131 0 256 0C246.869 0 238.251 2.3235 230.144 6.9705L152.8 51.5434L389.344 189.227ZM256 266.382L357.344 207.708L119.744 70.4724L18.24 128.698L256 266.382Z" fill="#3188E1"/>
</svg>
