<svg width="512" height="512" viewBox="0 0 512 512" fill="none" xmlns="http://www.w3.org/2000/svg">
<path d="M300.96 33.6C287.744 -11.2 224.256 -11.2 211.04 33.6L207.84 44.48C205.865 51.187 202.415 57.367 197.741 62.5668C193.067 67.7666 187.288 71.8542 180.829 74.53C174.369 77.2059 167.393 78.4019 160.411 78.0306C153.429 77.6593 146.619 75.7299 140.48 72.384L130.56 66.944C89.504 44.608 44.608 89.504 66.976 130.528L72.384 140.48C86.656 166.72 73.12 199.392 44.48 207.84L33.6 211.04C-11.2 224.256 -11.2 287.744 33.6 300.96L44.48 304.16C51.187 306.135 57.367 309.585 62.5668 314.259C67.7666 318.933 71.8542 324.712 74.53 331.171C77.2059 337.631 78.4019 344.607 78.0306 351.589C77.6593 358.571 75.7299 365.381 72.384 371.52L66.944 381.44C44.608 422.496 89.504 467.392 130.528 445.024L140.48 439.616C146.619 436.27 153.429 434.341 160.411 433.969C167.393 433.598 174.369 434.794 180.829 437.47C187.288 440.146 193.067 444.233 197.741 449.433C202.415 454.633 205.865 460.813 207.84 467.52L211.04 478.4C224.256 523.2 287.744 523.2 300.96 478.4L304.16 467.52C306.135 460.813 309.585 454.633 314.259 449.433C318.933 444.233 324.712 440.146 331.171 437.47C337.631 434.794 344.607 433.598 351.589 433.969C358.571 434.341 365.381 436.27 371.52 439.616L381.44 445.056C422.496 467.392 467.392 422.496 445.024 381.472L439.616 371.52C436.27 365.381 434.341 358.571 433.969 351.589C433.598 344.607 434.794 337.631 437.47 331.171C440.146 324.712 444.233 318.933 449.433 314.259C454.633 309.585 460.813 306.135 467.52 304.16L478.4 300.96C523.2 287.744 523.2 224.256 478.4 211.04L467.52 207.84C460.813 205.865 454.633 202.415 449.433 197.741C444.233 193.067 440.146 187.288 437.47 180.829C434.794 174.369 433.598 167.393 433.969 160.411C434.341 153.429 436.27 146.619 439.616 140.48L445.056 130.56C467.392 89.504 422.496 44.608 381.472 66.976L371.52 72.384C365.381 75.7299 358.571 77.6593 351.589 78.0306C344.607 78.4019 337.631 77.2059 331.171 74.53C324.712 71.8542 318.933 67.7666 314.259 62.5668C309.585 57.367 306.135 51.187 304.16 44.48L300.96 33.6ZM256 349.76C231.133 349.76 207.285 339.882 189.702 322.298C172.118 304.715 162.24 280.867 162.24 256C162.24 231.133 172.118 207.285 189.702 189.702C207.285 172.118 231.133 162.24 256 162.24C280.858 162.24 304.698 172.115 322.276 189.692C339.853 207.27 349.728 231.11 349.728 255.968C349.728 280.826 339.853 304.666 322.276 322.244C304.698 339.821 280.858 349.696 256 349.696V349.76Z" fill="#3188E1"/>
</svg>
