<svg width="50" height="33" viewBox="0 0 50 33" fill="none" xmlns="http://www.w3.org/2000/svg">
<path d="M49.1377 32.7586H0.862106C0.386034 32.7586 0 32.3725 0 31.8965V0.862106C0 0.386033 0.386034 0 0.862106 0H49.1378C49.6139 0 49.9999 0.386033 49.9999 0.862106V31.8965C49.9998 32.3725 49.6138 32.7586 49.1377 32.7586Z" fill="#41479B"/>
<path d="M49.9999 0.862106C49.9999 0.386033 49.6139 0 49.1378 0H45.2808L29.3101 10.4635V0H20.6895V10.4635L4.71893 0H0.862106C0.386034 0 0 0.386033 0 0.862106V3.09169L13.702 12.0689H0V20.6896H13.702L0 29.6669V31.8965C0 32.3725 0.386034 32.7586 0.862106 32.7586H4.71902L20.6897 22.295V32.7586H29.3103V22.295L45.281 32.7586H49.1377C49.6138 32.7586 49.9998 32.3725 49.9999 31.8965L50 29.6669L36.298 20.6897H49.9998V12.069H36.2978L49.9998 3.09169L49.9999 0.862106Z" fill="#F5F5F5"/>
<path d="M49.9998 13.7931H27.5861V0H22.4137V13.7931H0V18.9655H22.4137V32.7586H27.5861V18.9655H49.9998V13.7931Z" fill="#FF4B55"/>
<path d="M17.4756 20.6897L0.0247016 32.0175C0.0857366 32.4338 0.428807 32.7586 0.862106 32.7586L2.04969 32.7587L20.6424 20.6898L17.4756 20.6897Z" fill="#FF4B55"/>
<path d="M33.8274 20.6897H30.6607L49.2263 32.7408C49.659 32.6947 49.9999 32.3414 49.9999 31.8965L50.0005 31.1877L33.8274 20.6897Z" fill="#FF4B55"/>
<path d="M0.000630186 1.81383L15.7993 12.0691H18.9661L0.502874 0.0841513C0.207954 0.221162 0 0.515525 0 0.862106L0.000630186 1.81383Z" fill="#FF4B55"/>
<path d="M32.4778 12.0691L49.9706 0.713983C49.898 0.311445 49.5613 0 49.1378 0L47.9034 0.000216484L29.311 12.0691H32.4778Z" fill="#FF4B55"/>
</svg>
