<svg width="50" height="33" viewBox="0 0 50 33" fill="none" xmlns="http://www.w3.org/2000/svg">
<path d="M49.9999 10.9196H0V0.862107C0 0.386034 0.386034 0 0.862108 0H49.1379C49.614 0 50 0.386034 50 0.862107L49.9999 10.9196Z" fill="#82AFFF"/>
<path d="M49.1378 32.7586H0.862108C0.386034 32.7586 0 32.3726 0 31.8965V21.8391H49.9999V31.8965C49.9999 32.3727 49.6139 32.7586 49.1378 32.7586Z" fill="#73AF00"/>
<path d="M49.9999 10.9196H0V21.8391H49.9999V10.9196Z" fill="#F5F5F5"/>
<path d="M49.9999 9.94967H0V11.3112H49.9999V9.94967Z" fill="#FF4B55"/>
<path d="M50.0001 21.4467H0.000183757V22.8082H50.0001V21.4467Z" fill="#FF4B55"/>
<path d="M11.0829 8.18322C9.3181 8.18322 7.88754 6.75607 7.88754 4.99758C7.88754 3.23264 9.318 1.79905 11.0829 1.79905C11.0898 1.79905 11.0964 1.79905 11.1031 1.79915C11.207 1.80052 11.2434 1.66253 11.1518 1.61341C10.6083 1.3221 9.98812 1.15725 9.32875 1.16204C7.21703 1.17708 5.5017 2.92698 5.52416 5.03869C5.54623 7.12863 7.25482 8.82033 9.35638 8.82033C10.0067 8.82033 10.6182 8.65578 11.1549 8.36847C11.2462 8.31955 11.2093 8.18156 11.1058 8.18303C11.098 8.18322 11.0905 8.18322 11.0829 8.18322Z" fill="#F5F5F5"/>
<path d="M13.5847 7.30234L13.442 7.73027L12.9909 7.73369C12.9325 7.73408 12.9083 7.80869 12.9553 7.84336L13.3182 8.11133L13.182 8.5414C13.1645 8.59707 13.2278 8.64316 13.2754 8.60918L13.6424 8.34687L14.0094 8.60918C14.0569 8.64316 14.1202 8.59707 14.1027 8.5414L13.9666 8.11133L14.3294 7.84336C14.3764 7.80869 14.3522 7.73408 14.2938 7.73369L13.8427 7.73027L13.7 7.30234C13.6815 7.24697 13.6032 7.24697 13.5847 7.30234Z" fill="#F5F5F5"/>
<path d="M16.7627 7.30234L16.62 7.73027L16.1689 7.73369C16.1105 7.73408 16.0863 7.80869 16.1333 7.84336L16.4961 8.11133L16.3599 8.5414C16.3423 8.59707 16.4057 8.64316 16.4533 8.60918L16.8203 8.34687L17.1873 8.60918C17.2348 8.64316 17.2981 8.59707 17.2806 8.5414L17.1445 8.11133L17.5073 7.84336C17.5543 7.80869 17.53 7.73408 17.4716 7.73369L17.0206 7.73027L16.8779 7.30234C16.8594 7.24697 16.781 7.24697 16.7627 7.30234Z" fill="#F5F5F5"/>
<path d="M19.9405 7.30234L19.7979 7.73027L19.3468 7.73369C19.2884 7.73408 19.2642 7.80869 19.3112 7.84336L19.674 8.11133L19.5379 8.5414C19.5203 8.59707 19.5837 8.64316 19.6313 8.60918L19.9983 8.34687L20.3653 8.60918C20.4128 8.64316 20.4761 8.59707 20.4586 8.5414L20.3225 8.11133L20.6853 7.84336C20.7322 7.80869 20.708 7.73408 20.6496 7.73369L20.1986 7.73027L20.0559 7.30234C20.0374 7.24697 19.959 7.24697 19.9405 7.30234Z" fill="#F5F5F5"/>
<path d="M23.1183 7.30234L22.9756 7.73027L22.5245 7.73369C22.4661 7.73408 22.4419 7.80869 22.4889 7.84336L22.8517 8.11133L22.7155 8.5414C22.698 8.59707 22.7613 8.64316 22.8089 8.60918L23.1759 8.34687L23.5429 8.60918C23.5904 8.64316 23.6537 8.59707 23.6362 8.5414L23.5001 8.11133L23.8629 7.84336C23.9099 7.80869 23.8856 7.73408 23.8273 7.73369L23.3762 7.73027L23.2335 7.30234C23.2151 7.24697 23.1367 7.24697 23.1183 7.30234Z" fill="#F5F5F5"/>
<path d="M26.2965 7.30234L26.1538 7.73027L25.7028 7.73369C25.6444 7.73408 25.6202 7.80869 25.6671 7.84336L26.03 8.11133L25.8939 8.5414C25.8763 8.59707 25.9397 8.64316 25.9872 8.60918L26.3542 8.34687L26.7212 8.60918C26.7688 8.64316 26.8321 8.59707 26.8146 8.5414L26.6784 8.11133L27.0413 7.84336C27.0883 7.80869 27.0641 7.73408 27.0057 7.73369L26.5546 7.73027L26.4119 7.30234C26.3933 7.24697 26.315 7.24697 26.2965 7.30234Z" fill="#F5F5F5"/>
<path d="M16.7627 4.33631L16.62 4.76424L16.1689 4.76766C16.1105 4.76805 16.0863 4.84266 16.1333 4.87732L16.4961 5.14529L16.3599 5.57537C16.3423 5.63104 16.4057 5.67713 16.4533 5.64315L16.8203 5.38084L17.1873 5.64315C17.2348 5.67713 17.2981 5.63104 17.2806 5.57537L17.1445 5.14529L17.5073 4.87732C17.5543 4.84266 17.53 4.76805 17.4716 4.76766L17.0206 4.76424L16.8779 4.33631C16.8594 4.28074 16.781 4.28074 16.7627 4.33631Z" fill="#F5F5F5"/>
<path d="M19.9405 4.33631L19.7979 4.76424L19.3468 4.76766C19.2884 4.76805 19.2642 4.84266 19.3112 4.87732L19.674 5.14529L19.5379 5.57537C19.5203 5.63104 19.5837 5.67713 19.6313 5.64315L19.9983 5.38084L20.3653 5.64315C20.4128 5.67713 20.4761 5.63104 20.4586 5.57537L20.3225 5.14529L20.6853 4.87732C20.7322 4.84266 20.708 4.76805 20.6496 4.76766L20.1986 4.76424L20.0559 4.33631C20.0374 4.28074 19.959 4.28074 19.9405 4.33631Z" fill="#F5F5F5"/>
<path d="M23.1183 4.33631L22.9756 4.76424L22.5245 4.76766C22.4661 4.76805 22.4419 4.84266 22.4889 4.87732L22.8517 5.14529L22.7155 5.57537C22.698 5.63104 22.7613 5.67713 22.8089 5.64315L23.1759 5.38084L23.5429 5.64315C23.5904 5.67713 23.6537 5.63104 23.6362 5.57537L23.5001 5.14529L23.8629 4.87732C23.9099 4.84266 23.8856 4.76805 23.8273 4.76766L23.3762 4.76424L23.2335 4.33631C23.2151 4.28074 23.1367 4.28074 23.1183 4.33631Z" fill="#F5F5F5"/>
<path d="M26.2965 4.33631L26.1538 4.76424L25.7028 4.76766C25.6444 4.76805 25.6202 4.84266 25.6671 4.87732L26.03 5.14529L25.8939 5.57537C25.8763 5.63104 25.9397 5.67713 25.9872 5.64315L26.3542 5.38084L26.7212 5.64315C26.7688 5.67713 26.8321 5.63104 26.8146 5.57537L26.6784 5.14529L27.0413 4.87732C27.0883 4.84266 27.0641 4.76805 27.0057 4.76766L26.5546 4.76424L26.4119 4.33631C26.3933 4.28074 26.315 4.28074 26.2965 4.33631Z" fill="#F5F5F5"/>
<path d="M19.9405 7.30234L19.7979 7.73027L19.3468 7.73369C19.2884 7.73408 19.2642 7.80869 19.3112 7.84336L19.674 8.11133L19.5379 8.5414C19.5203 8.59707 19.5837 8.64316 19.6313 8.60918L19.9983 8.34687L20.3653 8.60918C20.4128 8.64316 20.4761 8.59707 20.4586 8.5414L20.3225 8.11133L20.6853 7.84336C20.7322 7.80869 20.708 7.73408 20.6496 7.73369L20.1986 7.73027L20.0559 7.30234C20.0374 7.24697 19.959 7.24697 19.9405 7.30234Z" fill="#F5F5F5"/>
<path d="M19.9405 1.37017L19.7979 1.7981L19.3468 1.80152C19.2884 1.80191 19.2642 1.87652 19.3112 1.91118L19.674 2.17915L19.5379 2.60923C19.5203 2.66489 19.5837 2.71099 19.6313 2.677L19.9983 2.4147L20.3653 2.677C20.4128 2.71099 20.4761 2.66489 20.4586 2.60923L20.3225 2.17915L20.6853 1.91118C20.7322 1.87652 20.708 1.80191 20.6496 1.80152L20.1986 1.7981L20.0559 1.37017C20.0374 1.3148 19.959 1.3148 19.9405 1.37017Z" fill="#F5F5F5"/>
<path d="M23.1183 7.30234L22.9756 7.73027L22.5245 7.73369C22.4661 7.73408 22.4419 7.80869 22.4889 7.84336L22.8517 8.11133L22.7155 8.5414C22.698 8.59707 22.7613 8.64316 22.8089 8.60918L23.1759 8.34687L23.5429 8.60918C23.5904 8.64316 23.6537 8.59707 23.6362 8.5414L23.5001 8.11133L23.8629 7.84336C23.9099 7.80869 23.8856 7.73408 23.8273 7.73369L23.3762 7.73027L23.2335 7.30234C23.2151 7.24697 23.1367 7.24697 23.1183 7.30234Z" fill="#F5F5F5"/>
<path d="M26.2965 7.30234L26.1538 7.73027L25.7028 7.73369C25.6444 7.73408 25.6202 7.80869 25.6671 7.84336L26.03 8.11133L25.8939 8.5414C25.8763 8.59707 25.9397 8.64316 25.9872 8.60918L26.3542 8.34687L26.7212 8.60918C26.7688 8.64316 26.8321 8.59707 26.8146 8.5414L26.6784 8.11133L27.0413 7.84336C27.0883 7.80869 27.0641 7.73408 27.0057 7.73369L26.5546 7.73027L26.4119 7.30234C26.3933 7.24697 26.315 7.24697 26.2965 7.30234Z" fill="#F5F5F5"/>
<path d="M23.1183 1.37017L22.9756 1.7981L22.5245 1.80152C22.4661 1.80191 22.4419 1.87652 22.4889 1.91118L22.8517 2.17915L22.7155 2.60923C22.698 2.66489 22.7613 2.71099 22.8089 2.677L23.1759 2.4147L23.5429 2.677C23.5904 2.71099 23.6537 2.66489 23.6362 2.60923L23.5001 2.17915L23.8629 1.91118C23.9099 1.87652 23.8856 1.80191 23.8273 1.80152L23.3762 1.7981L23.2335 1.37017C23.2151 1.3148 23.1367 1.3148 23.1183 1.37017Z" fill="#F5F5F5"/>
<path d="M26.2965 1.37017L26.1538 1.7981L25.7028 1.80152C25.6444 1.80191 25.6202 1.87652 25.6671 1.91118L26.03 2.17915L25.8939 2.60923C25.8763 2.66489 25.9397 2.71099 25.9872 2.677L26.3542 2.4147L26.7212 2.677C26.7688 2.71099 26.8321 2.66489 26.8146 2.60923L26.6784 2.17915L27.0413 1.91118C27.0883 1.87652 27.0641 1.80191 27.0057 1.80152L26.5546 1.7981L26.4119 1.37017C26.3933 1.3148 26.315 1.3148 26.2965 1.37017Z" fill="#F5F5F5"/>
</svg>
